<?xml version="1.0" encoding="UTF-8"?> <svg xmlns="http://www.w3.org/2000/svg" viewBox="0 0 48 49" width="48" height="49"><path fill="#fff" d="M0 3.938C0 2.039 1.578.5 3.525.5h40.95C46.422.5 48 2.039 48 3.938v41.124c0 1.899-1.578 3.438-3.525 3.438H3.525C1.578 48.5 0 46.961 0 45.062V3.938Zm14.829 36.744V19.007H7.626v21.675h7.203Zm-3.6-24.636c2.511 0 4.074-1.662 4.074-3.744-.045-2.127-1.56-3.744-4.026-3.744-2.466 0-4.077 1.62-4.077 3.744 0 2.082 1.563 3.744 3.981 3.744h.048Zm14.724 24.636V28.577c0-.648.048-1.296.24-1.758.519-1.293 1.704-2.634 3.696-2.634 2.607 0 3.648 1.986 3.648 4.902v11.595h7.203V28.25c0-6.66-3.552-9.756-8.292-9.756-3.822 0-5.535 2.1-6.495 3.579v.075h-.048c.0159-.025.0319-.05.048-.075v-3.066h-7.2c.09 2.034 0 21.675 0 21.675h7.2Z"></path></svg> 