<svg width="638" height="76" viewBox="0 0 638 76" fill="none" xmlns="http://www.w3.org/2000/svg">
<path d="M356.361 23.6385C360.132 23.634 363.38 24.0701 366.419 25.5193C370.738 27.5767 373.268 30.9559 373.814 35.7417C374.122 38.4544 374.004 41.1403 372.971 43.7121C371.535 47.2836 368.868 49.5871 365.337 50.9446C361.566 52.3915 357.647 52.6107 353.672 52.2081C350.691 51.9062 347.857 51.1168 345.336 49.4305C342.106 47.2702 340.299 44.222 339.823 40.3889C339.51 37.8707 339.597 35.366 340.416 32.9351C341.659 29.2406 344.218 26.7806 347.743 25.2688C350.633 24.0298 353.681 23.6228 356.361 23.6407V23.6385ZM356.755 50.0075C359.383 49.9807 361.91 49.7056 364.321 48.7596C367.189 47.6325 369.345 45.7562 370.49 42.8288C371.297 40.7624 371.369 38.602 371.199 36.4417C370.913 32.7651 369.255 29.8891 366.001 28.0218C364.129 26.9483 362.091 26.4026 359.962 26.1611C356.385 25.7563 352.852 25.8994 349.443 27.1719C346.537 28.2566 344.35 30.1418 343.176 33.076C342.321 35.2072 342.245 37.4391 342.442 39.6777C342.816 43.8888 344.965 46.8654 348.848 48.5606C351.386 49.6698 354.077 49.9673 356.752 50.0053L356.755 50.0075Z" fill="white"/>
<path d="M379.454 23.9961H404.501V26.2794H382.1V36.806H402.7V39.1229H382.073V52.0201H379.456V23.9961H379.454Z" fill="white"/>
<path d="M637.028 33.6911H634.393C634.32 33.2752 634.235 32.8458 634.167 32.4119C633.713 29.5024 631.958 27.7513 629.233 26.8568C627.413 26.2574 625.529 26.0271 623.628 25.9443C620.644 25.8146 617.661 25.8325 614.74 26.5526C613.863 26.7696 612.99 27.0894 612.187 27.5009C610.501 28.3619 609.709 29.8021 609.785 31.6985C609.861 33.6017 611.022 34.6461 612.675 35.2767C614.818 36.093 617.07 36.3994 619.334 36.6096C621.966 36.8534 624.61 37.0099 627.236 37.2984C629.699 37.569 632.139 38.0006 634.416 39.0584C636.053 39.821 637.411 40.9057 637.795 42.7529C638.471 46.0024 637.516 48.6413 634.328 50.332C632.459 51.3249 630.425 51.7834 628.348 52.0339C624.053 52.5527 619.759 52.546 615.482 51.8393C613.787 51.5598 612.143 51.0812 610.617 50.2627C607.862 48.7866 606.471 46.4072 606.068 43.3769C606.025 43.0638 605.996 42.7484 605.967 42.4331C605.963 42.3839 605.992 42.3302 606.014 42.2497H608.589C608.797 43.1197 608.933 43.9896 609.217 44.8081C610.02 47.1273 611.839 48.3349 614.062 49.0572C615.918 49.6588 617.84 49.9183 619.777 49.9943C622.944 50.1218 626.113 50.1464 629.251 49.5917C630.703 49.3368 632.128 48.9723 633.389 48.1538C635.116 47.0311 635.805 44.8551 635.017 42.9497C634.599 41.9344 633.749 41.3664 632.794 40.9415C631.108 40.1923 629.316 39.8412 627.5 39.6488C624.02 39.2798 620.526 39.0182 617.048 38.6223C614.883 38.3763 612.753 37.9134 610.749 36.9965C608.535 35.9834 607.191 34.3822 607.103 31.8484C607.014 29.243 608.07 27.2727 610.262 25.9019C611.982 24.8239 613.905 24.3051 615.887 24.0188C619.765 23.4597 623.651 23.4553 627.52 24.0949C629.649 24.446 631.689 25.0878 633.454 26.3894C635.599 27.9705 636.617 30.18 636.939 32.763C636.957 32.9106 636.963 33.0605 636.977 33.2081C636.99 33.3534 637.006 33.4988 637.026 33.6867L637.028 33.6911Z" fill="white"/>
<path d="M457.481 33.7026H454.882C454.663 32.7745 454.519 31.8531 454.229 30.9809C453.493 28.7781 451.809 27.5727 449.697 26.8638C447.879 26.2555 445.995 26.0363 444.094 25.9424C441.446 25.8127 438.802 25.8596 436.183 26.3226C434.747 26.5753 433.349 26.9599 432.119 27.7963C430.437 28.9413 429.775 31.0816 430.491 32.9869C430.857 33.962 431.6 34.5546 432.49 34.9885C434.206 35.8249 436.058 36.1805 437.928 36.3818C440.853 36.6948 443.79 36.8872 446.718 37.1846C449.444 37.4619 452.151 37.86 454.692 38.9782C456.841 39.9242 458.268 41.4203 458.431 43.887C458.608 46.5461 457.608 48.6058 455.325 50.0102C453.564 51.0926 451.603 51.6025 449.588 51.9134C445.736 52.5082 441.864 52.5172 437.995 52.1348C435.711 51.9089 433.472 51.4527 431.383 50.4217C428.326 48.9121 426.838 46.3694 426.478 43.0685C426.449 42.8113 426.44 42.5519 426.42 42.2567H429.066C429.205 42.9276 429.316 43.603 429.489 44.2627C430.081 46.5461 431.629 47.9438 433.756 48.7869C435.702 49.5585 437.747 49.8559 439.815 49.9655C443.112 50.1422 446.411 50.1578 449.681 49.5965C451.153 49.3438 452.598 48.9748 453.869 48.1361C455.671 46.9464 456.324 44.5154 455.32 42.666C454.71 41.5388 453.616 41.0312 452.477 40.6398C449.972 39.781 447.36 39.5127 444.741 39.3025C441.307 39.0251 437.849 38.9245 434.494 38.0657C433.152 37.7236 431.808 37.2718 430.576 36.6501C427.99 35.3441 427.232 33.1591 427.648 30.3055C428.012 27.8164 429.647 26.3069 431.824 25.3028C434.215 24.2002 436.774 23.8335 439.37 23.7038C442.634 23.5427 445.893 23.5763 449.098 24.3277C451.495 24.889 453.712 25.8082 455.349 27.7561C456.778 29.4535 457.309 31.4774 457.481 33.7026Z" fill="white"/>
<path d="M554.461 38.3381C554.966 38.4388 555.387 38.5126 555.803 38.6065C558.534 39.217 559.666 41.1135 559.876 43.6048C560.001 45.0853 559.985 46.5814 559.972 48.0708C559.959 49.5491 560.133 50.9356 561.497 52.0449C560.431 52.0449 559.527 52.056 558.626 52.0314C558.491 52.027 558.337 51.8816 558.236 51.7631C557.671 51.1078 557.346 50.3363 557.319 49.473C557.263 47.6683 557.261 45.8591 557.194 44.0543C557.174 43.484 557.073 42.9026 556.921 42.3524C556.449 40.6662 555.13 40.0109 553.557 39.7538C552.714 39.6151 551.853 39.5368 550.998 39.5346C545.668 39.5145 540.341 39.5212 535.011 39.5212C534.901 39.5212 534.791 39.5301 534.617 39.5391V52.0135H532.038V23.9963C532.248 23.9873 532.432 23.9717 532.613 23.9717C538.446 23.9717 544.277 23.9739 550.111 23.9717C552.479 23.9717 554.801 24.2378 556.959 25.2911C559.587 26.5726 561.043 28.639 561.01 31.6245C560.979 34.3842 559.073 36.8644 556.266 37.8305C555.707 38.0228 555.13 38.1547 554.463 38.3426L554.461 38.3381ZM534.642 26.3311V37.1238C534.767 37.135 534.856 37.1484 534.946 37.1484C540.108 37.1484 545.27 37.1618 550.43 37.1327C552.074 37.1238 553.703 36.9091 555.237 36.2583C557.013 35.5024 558.172 34.25 558.333 32.2463C558.5 30.1597 557.756 28.5205 555.888 27.485C554.418 26.671 552.797 26.3624 551.153 26.3467C545.749 26.293 540.345 26.3109 534.941 26.3042C534.852 26.3042 534.762 26.3221 534.642 26.3333V26.3311Z" fill="white"/>
<path d="M509.054 23.6387C512.745 23.6319 516.033 24.077 519.095 25.5686C523.678 27.8005 526.14 31.4883 526.453 36.5828C526.581 38.6559 526.512 40.7156 525.883 42.7216C524.706 46.481 522.215 49.0461 518.663 50.625C515.214 52.1591 511.564 52.5057 507.84 52.3358C505.2 52.215 502.621 51.7633 500.19 50.6764C495.164 48.4288 492.547 44.5174 492.261 39.0428C492.134 36.623 492.357 34.2413 493.333 31.9826C494.722 28.7689 497.139 26.6153 500.313 25.2623C503.205 24.03 506.252 23.6208 509.052 23.6364L509.054 23.6387ZM509.354 50.0077C511.96 49.9809 514.487 49.7036 516.896 48.7553C519.846 47.5947 522.047 45.649 523.13 42.6053C523.946 40.3063 523.993 37.9313 523.649 35.5451C523.096 31.7075 520.969 29.0417 517.462 27.4606C514.919 26.3134 512.212 25.9779 509.452 25.9712C506.636 25.9645 503.874 26.3044 501.277 27.4696C498.553 28.6906 496.58 30.6385 495.592 33.5033C494.896 35.5183 494.84 37.5936 495.019 39.6846C495.37 43.7928 497.437 46.7202 501.172 48.449C503.778 49.6544 506.562 49.9675 509.356 50.0032L509.354 50.0077Z" fill="white"/>
<path d="M579.391 49.6742H603.033V52.0157H576.794V24.0051H602.189V26.2773H579.391V36.5937H600.31V38.9329H579.391V49.672V49.6742Z" fill="white"/>
<path d="M473.343 26.2976H459.026V24.0076H490.23V26.2864H475.954V52.0092H473.343V26.2976Z" fill="white"/>
<path d="M567.26 23.9939H569.796V52.0201H567.26V23.9939Z" fill="white"/>
<path d="M181.667 23.9717C181.886 23.9717 182.07 23.9717 182.253 23.9717C187.937 23.9717 193.618 23.9762 199.301 23.9717C201.616 23.9695 203.869 24.2624 205.978 25.2889C208.754 26.6397 210.187 29.093 209.827 32.0808C209.541 34.4536 208.118 36.0816 206.054 37.1506C205.307 37.5375 204.47 37.7545 203.893 37.9691C204.884 38.3158 206.123 38.6065 207.226 39.1678C209.523 40.3375 210.865 42.216 210.811 44.884C210.758 47.6437 209.255 49.4552 206.868 50.627C204.732 51.6759 202.426 52.0136 200.086 52.0292C194.032 52.0717 187.977 52.0471 181.922 52.0493C181.851 52.0493 181.777 52.0359 181.665 52.027V23.9717H181.667ZM184.255 39.1924V49.6497C184.416 49.6609 184.544 49.6788 184.671 49.6788C189.701 49.6788 194.732 49.6967 199.762 49.6654C201.592 49.6542 203.41 49.4619 205.126 48.7529C206.855 48.0395 208 46.8408 208.15 44.893C208.304 42.8757 207.512 41.3349 205.721 40.3643C204.162 39.519 202.446 39.2193 200.706 39.2036C195.34 39.1522 189.974 39.1678 184.609 39.1589C184.501 39.1589 184.392 39.1813 184.253 39.1947L184.255 39.1924ZM184.246 36.7749C184.36 36.7973 184.414 36.8197 184.468 36.8174C189.686 36.8129 194.904 36.8264 200.12 36.7906C201.556 36.7816 202.974 36.5379 204.309 35.9452C206.179 35.1155 207.246 33.5031 207.224 31.5083C207.201 29.4709 206.105 27.9055 204.166 27.1227C202.547 26.4697 200.849 26.3042 199.127 26.302C194.356 26.2975 189.585 26.2998 184.814 26.302C184.633 26.302 184.454 26.3199 184.246 26.3311V36.7749Z" fill="white"/>
<path d="M251.821 52.0313H249.322V23.9782C250.255 23.9782 251.199 23.9581 252.14 23.9961C252.319 24.0028 252.505 24.2265 252.664 24.3763C260.24 31.602 267.813 38.8322 275.386 46.0602C276.111 46.7534 276.84 47.44 277.661 48.2183V24.0118H280.233V52.0402C279.522 52.0402 278.804 52.0626 278.088 52.0223C277.923 52.0134 277.759 51.7987 277.614 51.66C269.211 43.6561 260.81 35.6476 252.407 27.6414C252.248 27.4893 252.082 27.344 251.823 27.1091V52.0313H251.821Z" fill="white"/>
<path d="M300.932 35.1691C306.528 40.8137 312.082 46.4136 317.667 52.0493C316.542 52.0493 315.414 52.0649 314.287 52.0336C314.106 52.0291 313.907 51.8301 313.757 51.6803C308.863 46.8027 303.974 41.9185 299.087 37.0343C298.955 36.9023 298.852 36.7435 298.72 36.5803C297.219 37.6582 295.783 38.6892 294.349 39.7201C292.974 40.7109 291.607 41.7127 290.22 42.6833C289.894 42.9114 289.766 43.1463 289.771 43.5466C289.789 46.1542 289.78 48.764 289.78 51.3716V52.0135H287.219V24.0029H289.769V40.0757C290.102 39.8454 290.339 39.6844 290.569 39.5189C297.713 34.4311 304.855 29.3434 312.008 24.269C312.258 24.0924 312.614 23.9917 312.923 23.9828C314.113 23.9492 315.303 23.9694 316.551 24.079C311.346 27.7734 306.141 31.4679 300.932 35.1669V35.1691Z" fill="white"/>
<path d="M245.294 52.0493C244.364 52.0493 243.525 52.0762 242.689 52.0292C242.498 52.018 242.259 51.7832 242.152 51.5886C240.783 49.113 239.427 46.6306 238.088 44.1393C237.92 43.8284 237.732 43.7323 237.394 43.7323C231.563 43.7412 225.73 43.7412 219.899 43.7323C219.559 43.7323 219.373 43.8329 219.208 44.1437C217.87 46.6574 216.504 49.1555 215.162 51.6647C215.012 51.9464 214.844 52.0672 214.517 52.056C213.721 52.0314 212.925 52.0471 212.03 52.0471C212.601 51.0027 213.131 50.0276 213.665 49.0571C218.166 40.8697 222.67 32.6868 227.161 24.495C227.369 24.1148 227.62 24.003 228.058 23.9426C229.34 23.7659 229.982 24.2825 230.604 25.4275C235.377 34.1852 240.242 42.8936 245.075 51.6177C245.135 51.7273 245.189 51.8413 245.292 52.0448L245.294 52.0493ZM220.729 41.3528H236.573C233.903 36.4819 231.27 31.6827 228.593 26.8007C225.949 31.6939 223.361 36.4842 220.731 41.3528H220.729Z" fill="white"/>
<rect x="143.702" width="22.4809" height="55.3954" rx="11.2404" transform="rotate(90 143.702 0)" fill="white"/>
<rect x="143.702" y="26.7166" width="22.4809" height="75.5984" rx="11.2404" transform="rotate(90 143.702 26.7166)" fill="white"/>
<rect x="143.702" y="53.4329" width="22.4809" height="97.4307" rx="11.2404" transform="rotate(90 143.702 53.4329)" fill="white"/>
<path d="M14.5897 75.9842C17.3594 75.9842 20.1259 76.0005 22.8957 75.981C27.0569 75.9484 30.5207 74.3291 33.1341 71.1232C49.9515 50.4669 66.9513 29.9604 83.5373 9.11512C85.6391 6.47281 85.5414 3.38088 83.3353 1.38367C82.2828 0.429045 81.0413 0.00549266 79.614 0.00875075C73.9148 0.0250412 68.2124 -0.0336045 62.5132 0.0315574C58.1793 0.0804288 54.6926 1.94732 51.9587 5.29664C41.1501 18.5343 30.3317 31.7589 19.5166 44.99C13.5437 52.2979 7.58378 59.6188 1.58479 66.9072C0.023941 68.8034 -0.533264 70.8039 0.594193 73.0683C1.68906 75.2675 3.56599 76.0527 5.9545 75.9973C8.82854 75.9321 11.7091 75.981 14.5864 75.981L14.5897 75.9842Z" fill="#FEFDFD"/>
</svg> 